# xmcd
#
# Track frame offsets:
#	182
#	12957
#	26000
#	45850
#	61010
#	78052
#	90142
#	108677
#	126500
#	141175
#
# Disc length: 2080 seconds
# Revision: 16
# Processed by: cddbd v1.5.2PL0 Copyright (c) Steve Scherf et al.
# Submitted via: dBpowerAMP V12.0
#
DISCID=70081e0a
DTITLE=John Michael Montgomery - Kickin’ It Up
DYEAR=1994
DGENRE=Country
TTITLE0=Be My Baby Tonight
TTITLE1=Full‐Time Love
TTITLE2=I Swear
TTITLE3=She Don’t Need a Band to Dance
TTITLE4=All in My Heart
TTITLE5=Friday at Five
TTITLE6=Rope the Moon
TTITLE7=If You’ve Got Love
TTITLE8=Oh How She Shines
TTITLE9=Kick It Up
EXTD=
EXTT0=
EXTT1=
EXTT2=
EXTT3=
EXTT4=
EXTT5=
EXTT6=
EXTT7=
EXTT8=
EXTT9=
PLAYORDER=
